<?xml version="1.0" standalone="no"?>
<!DOCTYPE svg PUBLIC "-//W3C//DTD SVG 20010904//EN"
 "http://www.w3.org/TR/2001/REC-SVG-20010904/DTD/svg10.dtd">
<svg version="1.0" xmlns="http://www.w3.org/2000/svg"
 width="24.000000pt" height="24.000000pt" viewBox="0 0 24.000000 24.000000"
 preserveAspectRatio="xMidYMid meet">
<metadata>
Created by potrace 1.10, written by Peter Selinger 2001-2011
</metadata>
<g transform="translate(0.000000,24.000000) scale(0.100000,-0.100000)"
fill="#000000" stroke="none">
<path d="M27 213 c-16 -16 -6 -71 16 -87 15 -12 16 -15 5 -12 -10 3 -20 1 -23
-4 -4 -6 2 -10 12 -10 17 -1 17 -1 1 -14 -24 -18 -23 -29 2 -21 22 7 26 -5 9
-22 -7 -7 -7 -13 -1 -17 5 -3 15 1 22 9 9 11 16 12 31 2 15 -9 23 -9 38 0 15
10 22 9 31 -2 7 -8 17 -12 22 -9 6 4 6 10 -1 17 -17 17 -13 29 9 22 25 -8 26
3 3 21 -17 13 -17 13 0 14 10 0 16 4 12 10 -3 5 -13 7 -23 4 -11 -3 -10 0 6
12 22 16 28 47 16 78 -9 23 -24 20 -24 -6 0 -20 -1 -21 -20 -3 -19 18 -20 17
-20 -2 0 -11 7 -26 15 -33 8 -7 12 -17 9 -22 -4 -6 -10 -6 -17 1 -14 14 -60
14 -74 0 -7 -7 -13 -7 -17 -1 -3 5 1 15 9 22 8 7 15 22 15 33 0 19 -1 20 -20
2 -19 -18 -20 -17 -20 3 0 22 -10 28 -23 15z m129 -104 c18 -20 18 -21 -6 -40
-14 -10 -27 -19 -30 -19 -3 0 -16 9 -30 19 -24 19 -24 20 -6 40 11 12 27 21
36 21 9 0 25 -9 36 -21z"/>
</g>
</svg>
