<?xml version="1.0" standalone="no"?>
<!DOCTYPE svg PUBLIC "-//W3C//DTD SVG 20010904//EN"
 "http://www.w3.org/TR/2001/REC-SVG-20010904/DTD/svg10.dtd">
<svg version="1.0" xmlns="http://www.w3.org/2000/svg"
 width="30.000000pt" height="30.000000pt" viewBox="0 0 30.000000 30.000000"
 preserveAspectRatio="xMidYMid meet">
<metadata>
Created by potrace 1.10, written by Peter Selinger 2001-2011
</metadata>
<g transform="translate(0.000000,30.000000) scale(0.100000,-0.100000)"
fill="#000000" stroke="none">
<path d="M212 256 c-28 -14 -23 -30 11 -34 23 -3 27 0 27 22 0 28 -3 29 -38
12z"/>
<path d="M133 218 c-30 -15 -29 -24 7 -43 34 -18 64 -19 91 -5 28 15 23 30
-10 30 -16 0 -34 7 -41 15 -14 17 -17 17 -47 3z"/>
<path d="M56 168 c-22 -30 -20 -66 4 -106 16 -25 25 -32 38 -27 9 4 41 13 70
21 65 15 82 29 82 63 0 25 -2 26 -61 26 -51 0 -64 4 -79 23 -23 28 -35 28 -54
0z m78 -69 c-8 -14 -41 -10 -47 5 -3 8 -3 16 0 19 8 9 53 -15 47 -24z"/>
</g>
</svg>
